/* XPM */
static char * icon_xpm[] = {
"96 80 256 2",
"  	c #000300",
". 	c #080B07",
"+ 	c #10120F",
"@ 	c #181A17",
"# 	c #1E1F1D",
"$ 	c #252624",
"% 	c #00306C",
"& 	c #2A2B29",
"* 	c #0C335D",
"= 	c #123959",
"- 	c #00398F",
"; 	c #043B77",
"> 	c #0D3A6D",
", 	c #343634",
"' 	c #0E3D67",
") 	c #024086",
"! 	c #00418C",
"~ 	c #0F3D8A",
"{ 	c #113F7F",
"] 	c #004294",
"^ 	c #004483",
"/ 	c #08457D",
"( 	c #0F4579",
"_ 	c #08449E",
": 	c #134672",
"< 	c #214277",
"[ 	c #0047A8",
"} 	c #02489E",
"| 	c #3E403D",
"1 	c #10488E",
"2 	c #234574",
"3 	c #004C97",
"4 	c #254669",
"5 	c #004C9E",
"6 	c #114894",
"7 	c #004E93",
"8 	c #004F8E",
"9 	c #454644",
"0 	c #134E88",
"a 	c #0051AD",
"b 	c #194D8C",
"c 	c #174F83",
"d 	c #0054A0",
"e 	c #0253A8",
"f 	c #24507C",
"g 	c #00599E",
"h 	c #0058AA",
"i 	c #005A98",
"j 	c #135695",
"k 	c #17559A",
"l 	c #0B5B8F",
"m 	c #1A578E",
"n 	c #375373",
"o 	c #0D5DA9",
"p 	c #255A88",
"q 	c #525351",
"r 	c #0063A7",
"s 	c #0063AE",
"t 	c #02669B",
"u 	c #0066A3",
"v 	c #0064B8",
"w 	c #1461A1",
"x 	c #335B93",
"y 	c #1F649B",
"z 	c #2C6198",
"A 	c #2961A2",
"B 	c #296492",
"C 	c #006DB8",
"D 	c #0070A1",
"E 	c #2F6585",
"F 	c #425F8B",
"G 	c #006FB3",
"H 	c #046FAD",
"I 	c #35648D",
"J 	c #5C5E5B",
"K 	c #146BB1",
"L 	c #166FA7",
"M 	c #46688C",
"N 	c #0177C5",
"O 	c #2A6F9C",
"P 	c #636462",
"Q 	c #2C6EAF",
"R 	c #007ABE",
"S 	c #007AC4",
"T 	c #0F77BC",
"U 	c #097AB8",
"V 	c #386EA6",
"W 	c #167AB0",
"X 	c #416F9F",
"Y 	c #2F759C",
"Z 	c #457284",
"` 	c #307897",
" .	c #536F8A",
"..	c #0181CD",
"+.	c #087FD1",
"@.	c #41749D",
"#.	c #5C6F81",
"$.	c #6B6D6A",
"%.	c #4C7297",
"&.	c #2D79B0",
"*.	c #0483C8",
"=.	c #327AA8",
"-.	c #4D739E",
";.	c #0E84C0",
">.	c #487897",
",.	c #55777F",
"'.	c #018DD2",
").	c #3182BE",
"!.	c #747673",
"~.	c #3187A7",
"{.	c #2888B8",
"].	c #4480C3",
"^.	c #1C8DC9",
"/.	c #4B82AC",
"(.	c #3689B0",
"_.	c #0994D8",
":.	c #7A7C79",
"<.	c #4C86A9",
"[.	c #4389BA",
"}.	c #6482A0",
"|.	c #5B83B4",
"1.	c #6482AA",
"2.	c #2994D3",
"3.	c #3C94C4",
"4.	c #868784",
"5.	c #1C9DE3",
"6.	c #379AD3",
"7.	c #6992AC",
"8.	c #389CDB",
"9.	c #5896B9",
"0.	c #5196D2",
"a.	c #5599C2",
"b.	c #5599CB",
"c.	c #7295A1",
"d.	c #7592BB",
"e.	c #6B95BB",
"f.	c #469ED0",
"g.	c #6D94C3",
"h.	c #899199",
"i.	c #7A95B5",
"j.	c #639DB6",
"k.	c #6A9AC6",
"l.	c #939592",
"m.	c #38A8EA",
"n.	c #53AAD3",
"o.	c #5EA7D4",
"p.	c #52AADE",
"q.	c #9C9E9B",
"r.	c #82A2C1",
"s.	c #77A5C4",
"t.	c #61A9DE",
"u.	c #65ABC5",
"v.	c #4DB0E9",
"w.	c #82A3CF",
"x.	c #71A8D5",
"y.	c #74A9C5",
"z.	c #4AB1F3",
"A.	c #7AA7CD",
"B.	c #6CABCF",
"C.	c #73ABE3",
"D.	c #A7A9A6",
"E.	c #6DB4EA",
"F.	c #99ACB8",
"G.	c #62BBEF",
"H.	c #74B8E3",
"I.	c #69BCE6",
"J.	c #7CB8E8",
"K.	c #72BCDE",
"L.	c #92B4DF",
"M.	c #8CB8CC",
"N.	c #7EBBDF",
"O.	c #8AB8DF",
"P.	c #9DB5CC",
"Q.	c #99B6D6",
"R.	c #89BBD7",
"S.	c #B3B5B2",
"T.	c #86C4FC",
"U.	c #77CBFB",
"V.	c #7ECAF2",
"W.	c #93C5ED",
"X.	c #8BC8EF",
"Y.	c #8FC8E4",
"Z.	c #BDBFBC",
"`.	c #A4C1F3",
" +	c #A4C3E6",
".+	c #97C8DC",
"++	c #9EC9E7",
"@+	c #ACC8DF",
"#+	c #C6C8C5",
"$+	c #C0C8D7",
"%+	c #90D7FF",
"&+	c #A4D4FD",
"*+	c #A7D6F4",
"=+	c #AED5EB",
"-+	c #B1D5E4",
";+	c #B4D3F4",
">+	c #BCD3E5",
",+	c #9DDCED",
"'+	c #BBD4EC",
")+	c #D2D4D0",
"!+	c #C8D9E1",
"~+	c #BCDCF3",
"{+	c #AEE2FE",
"]+	c #A4E5FF",
"^+	c #D8DAD6",
"/+	c #B9E0FE",
"(+	c #CEDEFF",
"_+	c #AFEAFC",
":+	c #CEE2FD",
"<+	c #DFE1DE",
"[+	c #BCE9FE",
"}+	c #C8E9FF",
"|+	c #D7E7FB",
"1+	c #A8F6FE",
"2+	c #D0EBFD",
"3+	c #E0E7FD",
"4+	c #BEF2FF",
"5+	c #C7F0FF",
"6+	c #E9ECE8",
"7+	c #DDF1FE",
"8+	c #E5EFFB",
"9+	c #EAEEFF",
"0+	c #D5F5FF",
"a+	c #C6FCFE",
"b+	c #F0F2EF",
"c+	c #F4F1F6",
"d+	c #EEF3F6",
"e+	c #E8F5F6",
"f+	c #FBF2F2",
"g+	c #D3FDFF",
"h+	c #FFF2EC",
"i+	c #E7F8FE",
"j+	c #E1FAFF",
"k+	c #F4F7F3",
"l+	c #DCFDFF",
"m+	c #FDF4FB",
"n+	c #EFF8FF",
"o+	c #F9F7FD",
"p+	c #F4F9FC",
"q+	c #E2FFFC",
"r+	c #FFF8F0",
"s+	c #FFFBE5",
"t+	c #F9FBF8",
"u+	c #EAFFFE",
"v+	c #EEFFF3",
"w+	c #FFFCED",
"x+	c #FFFBF9",
"y+	c #FAFEEC",
"z+	c #F1FFFF",
"A+	c #F5FFFA",
"B+	c #F8FFF4",
"C+	c #FFFCFF",
"D+	c #F9FEFF",
"E+	c #FCFEFB",
"F+	c #FFFEF5",
"G+	c #FEFFFC",
"G+G+G+G+G+G+G+G+G+G+G+G+G+G+G+G+o+C+C+G+G+G+F+F+F+F+w+w+w+w+F+B+v+v+v+v+A+G+D+c+C+x+x+x+x+r+F+h+w+y+F+F+x+C+C+D+p+D+D+D+A+B+B+B+G+G+G+x+x+r+r+F+r+x+x+x+G+D+D+D+G+G+G+G+G+G+G+G+G+G+G+G+G+G+G+G+",
"G+G+G+G+G+G+G+G+G+G+G+G+G+G+G+G+G+G+C+t+t+t+G+F+F+F+F+F+F+F+F+F+B+v+v+B+A+G+D+G+o+C+D+D+D+D+D+z+z+z+z+p+n+n+n+n+D+D+p+k+G+F+F+F+G+x+G+x+x+G+G+x+r+r+x+G+G+G+D+D+G+G+G+G+G+G+G+G+G+G+G+G+G+G+G+G+",
"G+G+G+G+G+G+G+G+G+G+G+G+G+G+G+G+G+G+G+G+G+G+G+G+t+t+t+p+p+o+o+k+F+F+F+F+F+b+k+D+D+z+2+2+5+g+g+4+4+4+4+g+0+2+|+3+D+D+C+x+r+F+w+F+t+D+G+G+G+G+C+G+G+G+G+G+G+G+G+t+G+G+G+G+G+G+G+G+G+G+G+G+G+G+G+G+",
"G+G+G+G+G+G+G+G+G+G+G+G+G+G+G+G+t+G+G+G+G+D+D+z+D+D+D+D+z+z+D+D+C+f+f+x+G+G+G+D+z+|+7.7.B.N.I.I.6.6.W &.O I M  .p+C+C+C+f+f+f+G+D+D+D+D+D+D+D+D+D+D+G+t+F+F+F+F+G+G+G+G+G+G+G+G+G+G+G+G+G+G+G+G+",
"G+G+G+G+G+G+G+G+G+G+G+G+G+G+G+G+r+F+F+G+G+z+i+u+z+u+u+u+u+u+u+z+p+C+C+C+C+C+D+D+z+-+Z 9.I.G.v.8...N s i m : 4 n n+o+o+o+C+C+D+D+z+z+j+j+j+u+u+u+z+z+z+k+F+F+w+F+G+G+G+G+G+G+G+G+G+G+G+G+G+G+G+G+",
"G+G+G+G+G+G+G+G+G+G+G+G+G+G+G+G+F+F+F+G+z+z+u+u+q+0+/+W.x.g.|.|.w.`.(+8+p+D+D+z+z+!+Z s.V.%+U.z...N s r m : 4 n n+o+p+D+z+j+}+;+'+-+~+~+~+{+{+[+q+u+u+z+G+F+w+F+G+G+G+G+G+G+G+G+G+G+G+G+G+G+G+G+",
"G+G+G+G+G+G+G+G+G+G+G+G+G+G+G+G+F+F+t+D+z+u+g+_+s.9.[.&.y z j b 6 6 x |. +z+z+e+z+!+,.c.j.N.H.0.*.C w y p n n #.D+D+z+0+/+T.C.x.R.R.R.Y.V.K.K.N.*+{+0+u+z+G+F+w+G+G+G+G+G+G+G+G+G+G+G+G+G+G+G+G+",
"G+G+G+G+G+G+G+G+G+G+G+G+G+G+G+G+F+t+k+z+u+g+Y.j.<.=.=.L u u r s a a ~ % f Q.7+z+k+G+<+z+l+g+++B 8 u b.*+g+0+8+8+D+z+0+++b.).8.v.H.N.K.V.U.H.f.a.=.9.R.[+q+z+G+t+G+G+G+G+G+G+G+G+G+G+G+G+G+G+G+G+",
"G+G+G+G+G+G+G+G+G+G+G+t+t+t+G+G+C+D+z+u+5+Y.y.a.(.{.W H u r r s a a ] b *  .8+D+G+F+G+D+i+u+;+%.c c k.l+u+z+D+D+D+z+2+s.=.3.m.p.n.I.U.G.v.v.m.6.^.=.Y 9.=+q+z+p+D+t+k+k+G+G+G+G+G+G+G+G+G+G+G+G+",
"G+G+G+G+G+G+G+G+G+G+G+t+t+G+G+G+p+D+u+}+.+K.n.n.{.{.;.;.R T G A h ] 3 ; * 7.u+z+G+A+D+z+i+u+;+M l l k.g+u+z+z+D+e+u+4+u.~.(.f.6.G.p.v.v.z.m.5._.^.W =.=.<.=+q+u+D+t+t+G+G+G+t+G+G+G+G+G+G+G+G+G+",
"G+G+G+G+G+G+G+G+G+G+t+t+t+G+G+D+z+u+}+++B.n.p.f.^.^.;.;.).R u i 8 8 c 4 >.=+u+z+z+u+z+u+q+g+W.y 0 m k.a+q+q+j+j+u+u+l+,+j.` ~.n.3.6.z.z.m.5.5.5.*.R H L B /.*+q+z+t+t+G+G+t+k+G+G+G+G+G+G+G+G+G+",
"G+G+G+G+G+G+G+G+t+t+t+G+G+G+G+D+u+}+O.x.o.p.f.2.'.;.U U U H u i l : 4 }.{+q+l+q+l+5+[+{+*+%+E.V w i ).J.X.*+4+g+g+g+g+g+_+u.~.(.f.8.2._.5.5.'.....T r H L c /.5+z+G+t+G+G+k+k+G+G+G+G+G+G+G+G+G+",
"G+G+G+G+G+G+G+G+t+t+G+G+G+G+G+z+g+W.b.f.v.m._.'.*.R T G G u u m 4 E y.g+g+a+[+++Y.B.[.D t &.;.T ..C G U L O Y >.y.R.]+a+g+a+K.Y [.&.).^.'.*.S ..S S K r G 8 m k.i+G+t+G+G+t+t+G+G+G+G+G+G+G+G+G+",
"G+G+G+G+G+G+G+G+t+G+G+G+G+G+t+u+&+p.^.8.m._.*.'.S S C G r i 8 c <.Y.4+4+W.O.x.b.[.[.^.^.;.;.*.T N C S T R u L B c B O [.H.]+_+]+b.W &.^.^.U T '.*.C C K g g A l >+G+t+t+G+G+G+G+G+G+G+G+G+G+G+G+",
"G+G+G+G+G+G+G+G+G+G+G+G+G+t+k+j+B.2.).'.'.S S '.+.N C A g A V |.a+4+X.e.b.t.0.0.8.2._.'.'.'.^._.*.....C S K T G T u g 8 8 w 0.T._+G.{.&.W ;.R G R r C C d d o / c.6+G+G+G+t+G+t+G+G+G+G+G+G+G+G+",
"G+G+G+G+G+G+G+G+G+G+G+G+D+p+d+0+[.*.T S S N N ..N C r j z |.`.0+{+k.H.J.b.t.0.8.8.2.2.2.2.^.W W U U ;.H T K K s s K r g g o o s 0.G.U.f.W L H u g G C s o o d ; n !+D+D+G+t+G+t+G+G+C+C+C+G+C+G+",
"D+D+G+G+G+G+G+G+x+G+G+D+D+z+z+R.L *.N N +.+.C C r H t /.X.[+*+W.J.E.t.t.t.t.x.o.a.a.{.{.=.{.D (.(.~.` E Y y H r G u t L u k e v s w 0.U.E.[.L y w T s s s 1 ! b c Q.i+i+G+y+F+F+G+C+C+D+C+C+G+G+",
"D+D+D+G+G+G+G+G+x+G+D+D+z+z+u+s.u S N N +.N C T L O 9.%+a+*+y.X.T.E.t.t.o.x.a.9.<.B.B.N.V.%+%+1+]+,+-+M.R.A.b.&.t t O t y g h e 3 K g Q T.&+[.y l j g g 1 3 1 7 ; g.j+z+G+y+y+F+G+C+C+C+C+C+G+G+",
"D+D+D+G+G+G+G+G+x+G+D+D+z+z+7+>.H C s s G G u t =.X.a+]+X.X.X.N.U.U.I.n.n.B.y.R.=+[+5+g+0+l+g+l+g+g+q+0+u+0+g+]+U.o.Y E l w o h v ! 1 b m C._+J.&.( m j ) 7 6 ) { -.2+z+G+y+y+w+G+C+D+C+C+C+G+G+",
"D+D+G+G+G+G+G+G+G+t+D+D+z+z+7+M i C T u i l O <.]+4+]+X.N.V.U.U.I.V.I.K.K.Y.{+0+q+u+z+z+z+z+D+7+g+g+u+z+z+z+u+l+g+4+*+y.>.c 7 s d 3 d 7 ^ m x.4+*+/.p ( / 7 6 ! b F ;+z+G+y+y+F+G+G+D+D+C+C+G+G+",
"D+D+G+G+G+G+G+G+G+G+G+D+z+z+7+ .y r w m p /.Y.g+q+[+R.X.%+U.U.U.V.K.K.Y.]+g+q+u+z+z+o+o+m+C+C+$+r.R.z+D+C+o+p+i+u+u+u+u+'+d.x ^ 3 s 3 3 K ^ > k.g+0+s.M ' % ) 1 ( M :+i+A+F+y+F+G+G+D+D+C+C+G+G+",
"D+D+G+G+C+G+G+G+G+G+G+p+D+z+i+r.l 0 c O A.~+q+q+-+.+.+V.V.U.%+U.K.Y.=+5+l+u+z+z+D+G+C+x+C+C+f+h.=  .|+C+C+C+C+D+D+z+d+p+D+i+L.V b 7 3 3 d ) ; f r.u+u+@+e.m b ; 2 i.z+z+A+F+F+F+G+G+D+D+D+C+C+G+",
"D+D+G+G+C+G+G+G+t+G+D+p+D+z+D+>+%./.L./+l+u+l+2+-+M.y.X.%+U.U.U. +:+i+z+z+p+p+G+G+G+G+G+G+G+G+h.= M |+C+f+x+C+C+C+C+x+f+C+D+i+/+y w k 3 5 6 ) / n P.z+z+0+;+g.z 1.'+z+z+G+F+F+F+G+G+D+D+D+C+C+x+",
"D+D+G+G+G+G+G+G+t+G+D+p+D+p+D+z+u+2+j+u+u+u+0+=+y.R.%+V.I.V.V.B.:+9+C+C+C+C+x+x+G+G+G+A+k+A+z+c.' I :+D+x+r+x+x+x+x+F+F+x+D+z+u+;+X ^ 3 ] } d { >  .|+z+z+z+u+j+:+z+z+p+G+b+F+G+G+D+D+D+D+C+C+x+",
"G+G+G+G+G+G+G+G+C+G+G+D+D+D+D+D+D+n+D+z+u+u+~+y.N.I.I.I.X.N.Y./+D+C+C+C+C+x+x+x+G+G+D+D+z+z+z+7.: O }+D+x+F+F+r+x+x+F+F+G+G+z+u+u+/+p 1 e a _ 3 ^ f i.z+n+D+D+D+z+z+D+D+G+G+G+G+G+D+D+D+D+G+C+C+",
"G+G+G+G+G+G+G+G+G+G+G+G+G+D+D+G+C+f+C+D+z+u+=+B.H.G.E.H.H.R.=+7+G+x+x+x+x+x+x+x+G+G+D+D+z+z+u+7.( X }+z+t+F+F+r+G+G+F+F+F+G+z+z+z+7+w.0 ] a [ _ 3 / %.|+D+o+C+C+D+z+D+D+C+G+G+G+G+D+D+D+D+G+C+C+",
"G+G+G+G+G+G+G+G+G+G+G+G+G+G+G+G+x+r+x+D+z+5+X.o.G.z.z.E.B.++0+D+G+G+F+F+F+F+F+G+x+C+D+D+p+z+z+d./ X [+z+A+F+F+G+G+C+F+F+F+G+z+z+G+p+7+V ! a [ [ 5 ) : Q.D+m+x+x+D+D+D+G+C+C+C+G+G+G+D+D+D+G+C+C+",
"G+G+G+G+G+G+G+G+G+G+G+G+G+G+G+G+r+r+x+G+z+*+H.p.z.z.z.E.B.@+n+G+A+A+A+A+F+F+G+G+x+C+C+C+p+p+D+d.< V [+z+A+F+G+G+D+G+x+G+F+G+z+z+F+k+z+L.7 } [ a a ! > }.z+o+r+r+G+D+D+G+C+C+C+G+G+G+G+G+G+G+C+C+",
"G+G+G+G+G+G+G+G+G+G+G+G+G+G+G+G+x+x+G+D+u+R.B.p.z.z.z.v.O.'+D+G+A+z+A+A+A+G+G+G+x+C+C+C+o+p+D+d.< V }+z+A+F+G+z+D+D+C+x+F+G+A+A+B+A+z+}+x ! - a a ] 8 I 2+D+r+w+F+G+G+C+C+C+C+G+D+G+A+A+G+G+C+C+",
"G+G+G+G+G+G+G+G+G+G+G+G+G+G+G+G+C+C+D+z+j+7.a.f.5.z.z.t.O.}+G+x+D+z+z+D+G+G+G+G+G+C+C+D+p+D+D+i.; z }+D+F+F+G+D+D+D+C+C+x+F+G+A+B+D+i+u+-.{ ~ ] e 6 j p ;+z+x+F+F+F+G+G+C+C+C+G+D+A+A+A+G+G+C+C+",
"G+G+G+G+G+G+G+G+G+G+G+G+G+G+G+G+D+z+z+z+2+>.a.f.8.z.8.6.W.0+D+x+G+D+D+G+C+G+G+G+G+G+D+D+z+z+z+7.> x :+D+F+w+G+D+D+C+C+o+x+F+F+A+A+z+z+z+1.< ) ~ 5 ! 7 l ;+z+p+F+F+F+F+G+C+C+C+C+D+A+A+A+G+G+C+C+",
"G+G+G+G+G+G+G+G+G+G+G+G+G+G+G+G+D+z+z+z+2+E a.f.8.m.8.0.W.j+C+C+C+D+C+C+x+x+x+x+x+G+D+D+z+u+u+c.' F }+z+D+D+D+z+z+D+C+C+x+F+F+F+A+D+z+z+d.< ) 6 5 ] ) z ;+j+D+G+F+F+G+G+C+C+C+G+D+G+A+A+G+G+C+C+",
"G+G+G+G+G+G+G+G+G+G+G+G+G+G+G+G+A+z+D+u+2+M f.6.m.m.m.3.N.u+C+x+G+A+G+F+x+x+x+x+m+m+C+z+u+u+q+c.' X O./+/+/+/+}+}+:+!+8+p+G+G+F+w+w+p+u+g.) 5 } } - 7 c  +z+p+G+G+G+G+C+C+C+G+G+G+G+G+G+G+G+G+G+",
"G+G+G+G+G+G+G+G+G+G+G+G+G+G+G+G+B+G+z+z+0+@.b.2.5.m.8.3.K.l+C+x+G+A+G+G+G+x+x+x+o+C+C+D+z+u+q+c.= f O /.@.@.@.%.}. .#.#.F.z+D+G+s+w+d+u+|.) } _ } ~ b f ;+z+p+G+G+G+G+G+G+G+G+G+G+G+G+G+G+G+G+G+",
"G+G+G+G+G+G+G+G+G+G+G+G+G+G+G+G+F+G+z+z+q+<.[.;._.5.2.^.n.{+z+c+D+D+D+D+G+C+C+x+x+G+x+D+D+D+z+c.4 ( ( ( ( : ' ' 4 = 4 = }.7+z+z+w+F+i+u+&.) ] _ } 6 ^ F :+n+D+G+G+G+G+G+G+G+G+G+G+G+G+G+G+G+G+G+",
"G+G+G+G+G+G+G+G+G+G+G+G+G+G+G+G+F+G+D+z+u+s.=.;.*.5._.^.3.Y.u+z+D+D+D+D+D+D+D+D+G+G+k+t+G+C+C+$+r.x.k.x.x.x.A.A.s.i.r.r.@+j+z+z+G+G+z+/+z ) ] } ] 3 < -.2+n+G+G+G+G+G+G+G+G+G+G+G+G+G+G+G+G+G+G+",
"G+G+G+G+G+G+G+G+G+G+G+G+G+G+G+G+G+t+D+z+u+++=.;.;._._.^.=.n.g+u+D+C+C+G+D+D+D+A+A+G+A+D+o+C+C+c+i+l+u+u+u+q+l+j+u+j+z+z+z+z+D+D+D+z+u+A./ 1 } 5 ! ) ; d.i+z+G+k+G+G+G+G+G+G+G+G+G+G+G+G+G+G+G+G+",
"G+G+G+G+G+G+G+G+G+G+G+G+G+G+G+G+G+t+G+p+u+5+<.{.;.'.'.'.W {.%+q+D+C+C+C+G+G+G+A+A+D+D+D+o+C+C+C+D+D+D+D+p+p+D+D+D+D+p+G+G+c+o+d+z+j+}+X { 1 ] 5 ! { p Q.z+D+G+k+G+G+G+G+G+G+G+G+G+G+G+G+G+G+G+G+",
"G+G+G+G+G+G+G+G+G+G+G+G+G+G+G+G+G+G+t+D+z+q+B.=.;.*.'.'.U W o._+D+x+r+F+F+F+G+G+A+D+D+D+D+D+9+C+x+F+F+r+r+r+G+G+x+x+x+x+x+x+x+C+z+}+k./ ) 1 ! 6 ) < 1.}+z+D+G+G+G+G+G+G+G+G+G+G+G+G+G+G+G+G+G+G+",
"G+G+G+G+G+G+G+G+G+G+G+G+G+G+G+C+x+x+f+D+z+u+.+Y {.U *.*.*.U {.V.z+G+G+G+G+G+G+G+k+G+p+D+D+D+9+D+r+w+w+w+F+F+r+r+x+f+x+x+o+C+f+D+0+&+c ; 7 3 3 1 ^ ( r.z+D+p+t+G+G+G+G+G+G+G+G+G+G+G+G+G+G+G+G+G+",
"G+G+G+G+G+G+G+G+G+G+G+G+G+G+G+C+x+C+x+t+D+u+4+Y.D L R '.*.*.U Y .+j+z+D+D+C+C+m+m+m+C+C+G+D+D+D+F+F+r+F+x+x+x+C+C+D+D+D+p+D+D+z+L.z ; b 1 1 7 ^ > g.}+z+D+p+t+G+G+G+G+G+G+G+G+G+G+G+G+G+G+G+G+G+",
"G+G+G+G+G+G+G+G+G+G+G+G+G+G+G+C+C+C+x+t+D+z+l+_+a.W H T *.*.R W ` M.4+l+j+p+C+C+m+m+C+x+x+F+B+B+F+F+G+G+G+x+o+o+D+D+n+n+z+z+:+ +z 1 1 1 ) 1 8 / -.Q.u+z+p+G+G+G+G+G+G+G+G+G+G+G+G+G+G+G+G+G+G+G+",
"G+G+G+G+G+G+G+G+G+G+G+G+G+G+G+C+C+C+x+t+G+D+u+l+%+o.H G *.R R ;.D (.I.]+g+u+z+9+m+m+f+h+r+w+y+y+F+x+x+G+C+C+G+D+n+D+z+z+u+2+r.f { ! ! ! ) 1 0 f  +2+z+D+d+G+G+G+G+G+G+G+G+G+G+G+G+G+G+G+G+G+G+G+",
"G+G+G+G+G+G+G+G+G+G+G+G+G+G+G+G+C+C+x+F+F+F+z+u+g+%+0.G T T R R ;.H H 6.U.4+q+z+D+C+C+x+F+w+y+w+F+G+G+t+o+D+D+D+z+z+z+u+ +M ' < 3 5 ] ! ) ^ z e.l+z+D+D+t+k+G+G+G+G+G+G+G+G+G+G+G+G+G+G+G+G+G+G+",
"G+G+G+G+G+G+G+G+G+G+G+G+G+G+G+C+C+C+C+F+w+y+A+z+u+g+T.T G G T R S C C G T ).J.[+0+j+z+z+D+z+z+A+p+p+D+D+D+D+D+z+8+2+Q.%.2 2 ( ; ] } ] 6 1 ; [.l+u+z+D+G+t+t+G+G+G+G+G+G+G+G+G+G+G+G+G+G+G+G+G+G+",
"G+G+G+G+G+G+G+G+G+G+G+G+G+G+G+C+C+o+C+F+y+s+r+z+z+q+_+).G K R T S C C T G u t &.O.W.*+5+l+u+u+u+u+z+z+u+u+7+~+;+L.-.2 ( 0 ^ ) ! - _ _ 6 7 0 k.u+i+D+G+k+t+G+G+t+G+G+G+G+G+G+G+G+G+G+G+G+G+G+G+G+",
"G+G+G+G+G+G+G+G+G+G+G+G+G+G+G+C+C+o+o+F+y+s+w+G+z+u+{+).U G R T S s g r H L L B l t =.[.b.x.x.L.W.W.O.A.e./.B c / ^ 7 o h ] _ } [ _ _ 5 1 x A.0+z+D+G+F+F+G+G+D+G+G+G+G+G+G+G+G+G+G+G+G+G+G+G+G+",
"G+G+G+G+G+G+G+G+G+G+G+G+G+G+G+G+D+o+c+F+y+w+w+G+z+j+&+&.).H U T s s G G u u t L t y u w r g k k 8 8 8 0 8 8 8 8 7 3 3 h 5 _ _ a _ _ 5 d { ( r.j+z+G+F+F+F+t+D+D+G+G+G+G+G+G+G+G+G+G+G+G+G+G+G+G+",
"G+G+G+G+G+G+G+G+G+G+G+G+G+G+G+G+D+D+G+G+F+G+G+G+z+u+*+=.L L H T C C K G u u y i w r r s s o o o h h h 5 5 h d d 7 7 7 1 6 d 5 - 5 5 6 1 ^ f i.z+D+G+F+F+G+D+D+D+D+G+G+G+G+G+G+G+G+G+G+G+G+G+G+G+",
"G+G+G+G+G+G+G+G+G+G+G+G+G+G+G+G+D+D+G+G+x+x+C+D+z+u+*+@.D H G G C s r i u y y l w r g s o o o o 5 a e e e h d 7 b 8 ^ ^ 7 7 3 3 3 3 3 7 / f i.z+D+G+G+F+G+D+D+D+D+G+G+G+G+G+G+G+G+G+G+G+G+G+G+G+",
"G+G+G+G+G+G+G+G+G+G+G+G+G+G+G+G+D+G+C+G+x+G+G+D+z+u+*+Y t G C C C s g i E.x.[.@.l m i j j j j g d d d d 7 7 b / % c X |.C.].k 3 5 5 6 1 ^ c d.z+D+G+G+F+G+D+D+D+D+G+G+G+G+G+G+G+G+G+G+G+G+G+G+G+",
"G+G+G+G+G+G+G+G+G+G+G+G+G+G+G+G+D+D+C+G+x+G+G+D+z+u+*+O y r v v v o g y a+g+/+ +A.k.[.X y l m c 0 / / 0 c y @./.A. +;+5+g+C.b d 5 } ] 3 1 c d.u+D+G+G+F+G+G+D+D+D+G+G+G+G+G+G+G+G+G+G+G+G+G+G+G+",
"G+G+G+G+G+G+G+G+G+G+G+G+G+G+G+C+D+C+C+C+G+F+G+D+z+u+++B i o h v h o j m g+q+u+z+z+u+2+/+ + +Q.Q.O.O.O.Q. +;+}+0+u+z+u+j+g+|.% ) } _ } 5 1 0 g.u+D+G+G+F+G+G+D+D+G+G+G+G+G+G+G+G+G+G+G+G+G+G+G+G+",
"G+G+G+G+G+G+G+G+G+G+G+G+G+G+G+C+D+C+C+C+G+F+F+G+z+u+++B j h a a 5 d b c 0+z+D+D+D+D+p+n+i+z+z+z+u+u+u+u+u+z+z+D+D+D+z+z+u+g./ k } [ _ } 1 0 g.u+z+D+G+F+G+G+D+D+G+G+G+G+G+G+G+G+G+G+G+G+G+G+G+G+",
"G+G+G+G+G+G+G+G+G+G+G+G+G+G+G+C+C+C+C+C+G+F+F+G+z+u+++p 7 5 [ a 5 3 ^ f 7+D+o+m+x+x+C+C+D+D+D+D+i+z+z+z+D+D+t+t+G+x+D+8+7+-.( 1 } _ _ ] ! b g.u+z+D+G+F+F+G+G+D+G+G+G+G+G+G+G+G+G+G+G+G+G+G+G+G+",
"G+G+G+G+G+G+G+G+G+G+G+G+G+G+G+C+C+C+C+C+G+F+F+G+z+u+++p b 6 _ a } 1 < f :+p+C+x+r+F+G+G+G+G+G+D+D+D+D+D+t+G+F+F+F+r+G+D+u+1.( { ] _ } 5 1 0 g.u+z+D+G+F+F+G+G+G+G+G+G+G+G+G+G+G+G+G+G+G+G+G+G+G+",
"G+G+G+G+G+G+G+G+G+G+G+G+G+G+G+C+C+C+C+C+G+F+F+G+z+j+P.I ; ! } _ 3 8 c f 2+D+G+F+F+F+F+F+G+G+G+G+G+G+G+G+G+F+F+F+F+F+k+D+i+}.* 0 6 5 ] 6 ) 0 L.j+D+G+G+F+F+G+G+G+G+G+G+G+G+G+G+G+G+G+G+G+G+G+G+G+",
"G+G+G+G+G+G+G+G+G+G+G+G+G+G+G+C+C+C+C+C+G+F+F+G+e+z+}+%.> { 3 ! 7 ; ' s.7+D+k+r+F+F+F+F+F+G+G+G+G+G+G+G+G+F+F+w+w+F+x+D+z+Q.f > { 1 ) { < X ;+z+D+C+G+F+F+G+G+D+G+G+G+G+G+G+G+G+G+G+G+G+G+G+G+G+",
"G+G+G+G+G+G+G+G+G+G+G+G+G+G+G+G+C+C+C+C+G+F+G+G+e+z+z+Q.F ( b 0 m f >.5+7+D+G+F+F+F+G+G+G+G+G+G+G+G+G+G+G+G+F+F+F+F+G+p+z+:+i.f ( c / ( F w.2+z+D+C+F+F+F+G+G+D+G+G+G+G+G+G+G+G+G+G+G+G+G+G+G+G+",
"G+G+G+G+G+G+G+G+G+G+G+G+G+G+G+G+C+C+C+C+G+G+G+G+D+D+z+i+Q.M * * 4 %.=+u+z+D+G+G+G+G+D+D+D+D+G+G+G+G+G+D+D+D+G+G+F+G+G+d+D+z+:+r.4 ' * n Q.u+z+n+G+G+F+F+F+G+D+D+G+G+G+G+G+G+G+G+G+G+G+G+G+G+G+G+",
"G+G+G+G+G+G+G+G+G+G+G+G+G+G+G+G+C+C+C+C+G+G+G+C+G+C+p+D+z+z+z+u+l+u+u+z+p+p+G+G+G+G+D+D+D+G+G+G+G+G+G+D+D+D+D+D+G+G+G+t+D+D+z+|+u+u+u+u+u+z+z+p+G+F+F+F+F+G+D+D+G+G+G+G+G+G+G+G+G+G+G+G+G+G+G+G+",
"G+G+G+G+G+G+G+G+G+G+G+G+G+G+G+G+G+G+C+C+C+C+C+C+C+C+o+p+p+D+z+i+i+z+p+p+C+G+x+x+C+G+D+D+D+C+C+x+x+x+C+D+D+D+D+D+k+G+G+G+G+D+D+D+D+8+i+z+z+D+D+G+G+F+F+F+G+G+D+D+G+G+G+G+G+G+G+G+G+G+G+G+G+G+G+G+",
"G+G+G+G+G+G+G+G+G+G+G+G+G+G+G+G+G+G+G+C+C+C+C+C+C+o+c+o+p+p+D+D+D+o+x+x+x+x+x+C+C+C+D+D+C+C+C+C+x+x+C+D+D+z+z+D+p+G+G+F+G+x+f+x+G+p+D+D+p+d+b+G+F+F+F+F+G+G+D+D+G+G+G+G+G+G+G+G+G+G+G+G+G+G+G+G+",
"G+G+G+G+G+G+G+G+G+G+G+G+G+G+G+G+G+G+G+G+C+C+C+C+C+C+C+C+G+G+t+k+G+f+x+x+x+x+x+m+C+C+C+C+C+C+C+C+x+x+C+G+D+D+D+D+D+G+k+r+F+G+x+G+G+t+G+D+D+D+k+G+F+F+F+F+G+G+D+D+G+G+G+G+G+G+G+G+G+G+G+G+G+G+G+G+",
"G+G+G+G+G+G+G+G+G+k+G+G+t+G+t+b+t+t+G+G+t+C+f+C+C+C+x+G+b+G+t+G+x+f+G+G+x+G+x+C+C+G+C+o+c+c+C+x+x+C+x+G+G+p+p+D+G+G+G+G+G+G+6+G+G+G+G+G+G+G+G+G+G+G+G+t+k+G+G+D+t+G+k+G+t+G+G+G+G+G+G+G+G+G+G+G+",
"G+G+G+G+G+G+G+G+6+G+t+G+G+b+G+G+G+G+G+t+G+G+G+G+G+t+G+k+G+G+t+G+t+G+G+G+G+G+k+G+b+k+k+G+G+G+t+G+G+6+b+G+G+G+t+G+G+G+b+b+k+t+G+G+G+G+G+G+G+G+G+G+t+G+G+b+k+G+G+G+G+t+G+k+k+G+G+t+G+G+G+G+G+G+G+G+",
"G+G+G+G+G+G+G+G+G+G+t+t+G+Z.S.G+G+G+G+k+G+G+G+t+k+b+6+G+G+6+G+k+t+G+k+k+6+G+G+6+b+G+G+t+t+G+6+G+G+G+G+k+t+S.l.G+G+G+G+G+G+t+G+k+G+G+G+G+G+G+G+G+G+G+t+k+G+G+<+G+t+t+G+D.:.k+t+G+G+G+G+G+G+G+G+G+",
"G+G+G+G+G+G+G+G+G+k+G+G+6+, J b+b+G+k+G+G+G+t+G+G+t+G+G+b+G+Z.$ <+k+t+G+G+G+G+4., )+b+G+G+G+k+G+k+k+G+G+k+P | b+b+k+t+t+k+b+G+t+G+G+G+G+G+G+G+G+t+G+G+G+k+4.q <+t+b+!.Z.9 4.G+t+G+G+G+G+G+G+G+G+",
"G+G+G+G+G+G+G+G+G+6+b+G+)+  q.6+6+b+Z.b+G+k+k+G+G+G+G+b+G+^+$ @ <+k+G+G+G+k+G+$ , t+G+G+k+G+G+G+G+G+t+t+G+P & G+G+t+G+G+G+G+t+G+G+G+G+G+G+G+G+G+k+t+G+G+G+P , G+t+t+l., #+$.t+t+G+G+G+G+G+G+G+G+",
"G+G+G+G+G+G+G+G+G+t+k+t+9   & + # +   Z.G+G+G+k+G+G+6+G+6+, , <+G+G+G+G+k+k+6++ :.G+t+G+t+G+G+k+k+G+G+6+<+q 9 )+b+<+Z.6+G+G+t+G+G+G+G+G+G+G+G+G+G+G+6+b+t+$.& b+G+k+k+!.D.t+G+G+G+G+G+G+G+G+G+G+",
"G+G+G+G+G+G+G+G+t+G+G+l.+ l.D.#+#+!.@ ^+G+G+t+G+k+t+G+^+9 $ ^+k+G+k+G+G+G+G+q.. ^+G+G+G+G+G+G+G+6+9 @ # @   +   . #   l.t+G+t+b+G+G+G+G+G+G+G+G+k+G+G+t+G+!., G+t+G+G+t+k+G+t+G+G+G+G+G+G+G+G+G+",
"G+G+G+G+G+G+G+G+k+G+<+  $.k+G+t+t+4.@ k+G+G+k+G+G+G+D.    Z.G+G+t+b+G+G+t+G+J # t+b+G+b+6+G+k+G+t+D.l.Z.)+| q )+^+Z.@ D.G+t+G+t+G+G+G+G+G+G+G+G+G+G+G+G+G+$.. Z.G+G+b+G+G+G+G+G+G+G+G+G+G+G+G+G+",
"G+G+G+G+G+G+G+G+G+<+. & b+q | b+<+# !.G+G+G+k+G+b+P . +   Z.G+G+G+G+G+G+G+^+$ :.G+G+<+6+G+G+t+G+G+t+G+t+G+, P t+G+b+. l.G+l.q P J J J J J J J J J q Z.G+t+$.    . P )+6+G+t+G+G+G+G+G+G+G+G+G+G+",
"G+G+G+G+G+G+G+G+G+)+q ^+k+q.$   P @ #+t+G+G+^+q.  + l.^+. S.G+b+t+t+G+b+t+q.  b+t+G+$.# <+k+G+G+G+t+G+t+)+  S.G+G+^+  q.k+:.| | , , , , , , , , | | S.G+k+J , Z.$.@   | <+t+t+G+G+G+G+G+G+G+G+G+",
"G+G+G+G+G+G+G+G+t+G+k+G+G+6+^+$.  # D.G+b+b+J   $.Z.k+)+  #+G+G+G+k+t+G+G+& q G+b+G+#+  9 G+k+k+G+k+k+G+!.# <+G+b+b++ 4.t+G+G+6+G+G+G+G+G+G+G+G+6+t+G+k+G+$., b+t+<+4.@ q.k+G+t+G+G+G+G+G+G+G+G+",
"G+G+G+G+G+G+G+G+G+b+G+b+b+G+G+J @ @ + k+k+G+Z.<+G+k+G+)+. S.t+t+G+G+6+G+)+. )+k+b+G+k+l.+ 4.6+b+k+G+6+)++ !.G+6+G+6++ D.G+b+b+G+G+G+G+G+G+G+G+G+G+G+G+G+G+P & t+G+G+G+<+G+G+k+G+G+G+G+G+G+G+G+G+",
"G+G+G+G+G+G+G+G+G+G+k+G+k+6+J   D.<+Z.b+t+G+G+b+G+G+t+Z.  #+G+b+G+k+4.$.,   , & # | @     . ^+k+t+G+6++ # t+b+t+G+Z.. Z.t+G+G+b+G+G+G+G+G+G+G+G+k+6+G+G+b+P | 6+G+t+G+G+G+G+k+k+G+G+G+G+G+G+G+G+",
"G+G+G+G+G+G+G+G+b+G+k+t+^+|   D.G+G+G+k+G+b+k+G+G+G+b+^++ Z.6+t+G+)+9 + + 9 | 9 J q q.l.l.. , t+t+Z.$ $ Z.G+G+:.4.| + b+t+G+G+t+t+t+t+t+t+t+t+t+G+G+G+b+k+P , G+t+b+G+G+6+G+G+G+G+G+G+G+G+G+G+G+",
"G+G+G+G+G+G+G+G+t+t+t+,   & D.G+G+t+G+G+t+G+t+G+t+k+G+)+  S.G+G+b+G+6+^+<+<+b+6+G+b+k+t+t+S.q.G+k+q # ^+G+t+t+&   q D.G+t+t+G+t+G+G+G+G+G+G+G+G+G+t+G+G+G+q @ k+G+G+G+t+k+G+t+k+G+G+G+G+G+G+G+G+",
"G+G+G+G+G+G+G+G+k+G+G+D.:.G+G+k+G+G+t+G+t+b+G+G+k+G+G+^+!.6+k+G+G+G+k+t+G+G+G+G+t+G+t+G+G+k+b+G+k+t+b+k+G+G+k+6+6+G+G+b+G+G+k+G+G+G+G+G+G+G+G+G+G+6+G+t+t+b+<+G+k+G+G+6+G+G+G+G+G+G+G+G+G+G+G+G+"};
